<svg width="30" height="25" viewBox="0 0 30 25" fill="none" xmlns="http://www.w3.org/2000/svg">
<g id="Mask group">
<mask id="mask0_5870_902" style="mask-type:alpha" maskUnits="userSpaceOnUse" x="0" y="0" width="30" height="25">
<path id="Vector 19" d="M26.2617 23.0825L29.9994 1.99057C29.9994 -0.000384301 28.046 0.300717 27.0692 0.700138L1.02685 8.6271C-0.316427 9.21701 0.46715 10.1428 1.02685 10.532L6.26167 12.7135C6.41531 12.8671 6.94647 13.1866 7.84199 13.2358C8.73751 13.285 9.6857 12.7032 10.0479 12.4062L20.2541 6.07695C20.4187 5.87212 21.0335 5.72308 21.3891 5.9996C21.8631 6.3683 21.6259 6.7529 21.4723 6.93724L15.0522 13.3894C13.7837 14.664 13.6365 15.1556 13.6365 15.448C13.6365 16.6611 14.5145 17.3836 15.0522 17.7523C17.1264 19.35 21.6698 22.8219 23.2501 23.928C24.8305 25.0341 26.13 24.0043 26.2617 23.0825Z" fill="white"/>
</mask>
<g mask="url(#mask0_5870_902)">
<rect id="Rectangle 216" x="-4.36328" y="-9.15088" width="46.4746" height="40.5302" fill="#E6E6E6"/>
</g>
</g>
</svg>
